<?xml version="1.0" standalone="no"?>
<!DOCTYPE svg PUBLIC "-//W3C//DTD SVG 20010904//EN"
 "http://www.w3.org/TR/2001/REC-SVG-20010904/DTD/svg10.dtd">
<svg version="1.0" xmlns="http://www.w3.org/2000/svg"
 width="240.000000pt" height="240.000000pt" viewBox="0 0 240.000000 240.000000"
 preserveAspectRatio="xMidYMid meet">
<metadata>
Created by potrace 1.14, written by Peter Selinger 2001-2017
</metadata>
<g transform="translate(0.000000,240.000000) scale(0.100000,-0.100000)"
fill="#000000" stroke="none">
<path d="M985 2079 c-324 -67 -576 -257 -705 -531 -55 -119 -78 -229 -74 -364
1 -60 5 -122 9 -139 11 -52 54 -174 80 -224 l24 -48 -60 -179 c-32 -98 -59
-187 -59 -197 0 -31 32 -75 62 -88 31 -12 106 0 373 60 l120 27 58 -22 c71
-28 162 -51 247 -63 67 -9 261 -7 315 4 262 52 461 159 608 328 49 55 127 167
127 181 0 3 11 29 25 58 45 96 65 209 61 343 -4 134 -5 140 -41 244 -108 318
-414 561 -785 620 -96 16 -286 11 -385 -10z m315 -184 c140 -13 308 -78 422
-161 71 -53 158 -153 201 -232 255 -476 -154 -1017 -754 -997 -110 4 -184 18
-279 55 -114 44 -116 44 -268 11 -77 -17 -147 -31 -156 -31 -12 0 -7 24 25
117 21 64 39 125 39 136 0 10 -18 50 -39 90 -22 40 -49 101 -61 135 -24 73
-34 213 -20 282 16 78 18 84 39 138 73 183 253 344 464 415 88 30 268 59 312
50 6 -1 39 -4 75 -8z"/>
</g>
</svg>
